{
  "accessors": [
    {
      "bufferView": 0,
      "componentType": 5126,
      "count": 1088,
      "type": "VEC3",
      "max": [
        1.1521217823028564,
        2.3658974170684814,
        0.549628734588623
      ],
      "min": [
        -1.1521217823028564,
        -2.8610228852699038E-08,
        -0.549628734588623
      ]
    },
    {
      "bufferView": 1,
      "componentType": 5126,
      "count": 1088,
      "type": "VEC3",
      "max": [
        1.0,
        1.0,
        1.0
      ],
      "min": [
        -1.0,
        -1.0,
        -1.0
      ]
    },
    {
      "bufferView": 2,
      "componentType": 5126,
      "count": 1088,
      "type": "VEC4",
      "max": [
        1.0,
        1.0,
        1.0,
        1.0
      ],
      "min": [
        -1.0,
        -1.0,
        -1.0,
        -1.0
      ]
    },
    {
      "bufferView": 3,
      "componentType": 5126,
      "count": 1088,
      "type": "VEC2",
      "max": [
        0.99668848514556885,
        0.99529349803924561
      ],
      "min": [
        0.0043879151344299316,
        0.0028145313262939453
      ]
    },
    {
      "bufferView": 4,
      "componentType": 5123,
      "count": 2844,
      "type": "SCALAR",
      "max": [
        1087.0
      ],
      "min": [
        0.0
      ]
    }
  ],
  "asset": {
    "version": "2.0"
  },
  "buffers": [
    {
      "uri": "hatStand.bin",
      "byteLength": 57912
    }
  ],
  "bufferViews": [
    {
      "buffer": 0,
      "byteLength": 13056
    },
    {
      "buffer": 0,
      "byteOffset": 13056,
      "byteLength": 13056
    },
    {
      "buffer": 0,
      "byteOffset": 26112,
      "byteLength": 17408
    },
    {
      "buffer": 0,
      "byteOffset": 43520,
      "byteLength": 8704
    },
    {
      "buffer": 0,
      "byteOffset": 52224,
      "byteLength": 5688
    }
  ],
  "images": [
    {
      "uri": "hatStand_1001_Normal.png",
      "name": "hatStand_1001_Normal"
    },
    {
      "uri": "hatStand_1001_AlbedoTransparency.png",
      "name": "hatStand_1001_AlbedoTransparency"
    },
    {
      "uri": "hatStand_1001_MetallicSmoothness.png",
      "name": "hatStand_1001_MetallicSmoothness"
    }
  ],
  "materials": [
    {
      "pbrMetallicRoughness": {
        "baseColorTexture": {
          "index": 1
        },
        "metallicFactor": 0.0,
        "roughnessFactor": 0.5,
        "metallicRoughnessTexture": {
          "index": 2
        }
      },
      "normalTexture": {
        "index": 0
      },
      "name": "hatStand"
    }
  ],
  "meshes": [
    {
      "primitives": [
        {
          "attributes": {
            "POSITION": 0,
            "NORMAL": 1,
            "TANGENT": 2,
            "TEXCOORD_0": 3
          },
          "indices": 4,
          "material": 0
        }
      ],
      "name": "hatStand"
    }
  ],
  "nodes": [
    {
      "mesh": 0,
      "rotation": [
        0.0,
        0.0,
        0.0,
        -1.0
      ],
      "name": "hatStand"
    }
  ],
  "samplers": [
    {}
  ],
  "scene": 0,
  "scenes": [
    {
      "nodes": [
        0
      ],
      "name": "hatStand"
    }
  ],
  "textures": [
    {
      "sampler": 0,
      "source": 0,
      "name": "hatStand_1001_Normal"
    },
    {
      "sampler": 0,
      "source": 1,
      "name": "hatStand_1001_AlbedoTransparency"
    },
    {
      "sampler": 0,
      "source": 2,
      "name": "hatStand_1001_MetallicSmoothness"
    }
  ]
}