{
  "accessors": [
    {
      "bufferView": 0,
      "componentType": 5126,
      "count": 596,
      "type": "VEC3",
      "max": [
        0.3626369833946228,
        0.30561789870262146,
        0.234979510307312
      ],
      "min": [
        -0.3626369833946228,
        -0.00463057728484273,
        -0.234979510307312
      ]
    },
    {
      "bufferView": 1,
      "componentType": 5126,
      "count": 596,
      "type": "VEC3",
      "max": [
        0.98929744958877563,
        1.0,
        0.99999964237213135
      ],
      "min": [
        -0.98929744958877563,
        -0.99958950281143188,
        -0.999993085861206
      ]
    },
    {
      "bufferView": 2,
      "componentType": 5126,
      "count": 596,
      "type": "VEC4",
      "max": [
        1.0,
        0.99637752771377563,
        0.96895813941955566,
        1.0
      ],
      "min": [
        -1.0,
        -0.99905627965927124,
        -0.95809274911880493,
        1.0
      ]
    },
    {
      "bufferView": 3,
      "componentType": 5126,
      "count": 596,
      "type": "VEC2",
      "max": [
        0.984797477722168,
        0.9847419261932373
      ],
      "min": [
        0.019839853048324585,
        0.014587700366973877
      ]
    },
    {
      "bufferView": 4,
      "componentType": 5123,
      "count": 2412,
      "type": "SCALAR",
      "max": [
        595.0
      ],
      "min": [
        0.0
      ]
    }
  ],
  "asset": {
    "version": "2.0"
  },
  "buffers": [
    {
      "uri": "napoleonsHat.bin",
      "byteLength": 33432
    }
  ],
  "bufferViews": [
    {
      "buffer": 0,
      "byteLength": 7152
    },
    {
      "buffer": 0,
      "byteOffset": 7152,
      "byteLength": 7152
    },
    {
      "buffer": 0,
      "byteOffset": 14304,
      "byteLength": 9536
    },
    {
      "buffer": 0,
      "byteOffset": 23840,
      "byteLength": 4768
    },
    {
      "buffer": 0,
      "byteOffset": 28608,
      "byteLength": 4824
    }
  ],
  "images": [
    {
      "uri": "napoleonHat_mdl_01_1001_Normal.png",
      "name": "napoleonHat_mdl_01_1001_Normal"
    },
    {
      "uri": "napoleonHat_mdl_01_1001_BaseMap.png",
      "name": "napoleonHat_mdl_01_1001_BaseMap"
    },
    {
      "uri": "napoleonHat_mdl_01_1001_MaskMap.png",
      "name": "napoleonHat_mdl_01_1001_MaskMap"
    }
  ],
  "materials": [
    {
      "pbrMetallicRoughness": {
        "baseColorTexture": {
          "index": 1
        },
        "metallicFactor": 0.0,
        "roughnessFactor": 0.5,
        "metallicRoughnessTexture": {
          "index": 2
        }
      },
      "normalTexture": {
        "index": 0
      },
      "name": "napoleonsHat"
    }
  ],
  "meshes": [
    {
      "primitives": [
        {
          "attributes": {
            "POSITION": 0,
            "NORMAL": 1,
            "TANGENT": 2,
            "TEXCOORD_0": 3
          },
          "indices": 4,
          "material": 0
        }
      ],
      "name": "napoleonsHat"
    }
  ],
  "nodes": [
    {
      "mesh": 0,
      "rotation": [
        0.0,
        0.0,
        0.0,
        -1.0
      ],
      "name": "napoleonsHat"
    }
  ],
  "samplers": [
    {}
  ],
  "scene": 0,
  "scenes": [
    {
      "nodes": [
        0
      ],
      "name": "napoleonsHat"
    }
  ],
  "textures": [
    {
      "sampler": 0,
      "source": 0,
      "name": "napoleonHat_mdl_01_1001_Normal"
    },
    {
      "sampler": 0,
      "source": 1,
      "name": "napoleonHat_mdl_01_1001_BaseMap"
    },
    {
      "sampler": 0,
      "source": 2,
      "name": "napoleonHat_mdl_01_1001_MaskMap"
    }
  ]
}