{
  "accessors": [
    {
      "bufferView": 0,
      "componentType": 5126,
      "count": 146,
      "type": "VEC3",
      "max": [
        0.089606672525405884,
        0.17095410823822021,
        0.032371185719966888
      ],
      "min": [
        -0.089506737887859344,
        0.00048286817036569118,
        -0.032371185719966888
      ]
    },
    {
      "bufferView": 1,
      "componentType": 5126,
      "count": 146,
      "type": "VEC3",
      "max": [
        0.98105031251907349,
        0.99999749660491943,
        1.0
      ],
      "min": [
        -0.98017615079879761,
        -0.87463885545730591,
        -1.0
      ]
    },
    {
      "bufferView": 2,
      "componentType": 5126,
      "count": 146,
      "type": "VEC4",
      "max": [
        0.99999642372131348,
        0.69437491893768311,
        0.99602758884429932,
        1.0
      ],
      "min": [
        -1.0,
        -0.69281399250030518,
        -0.99600827693939209,
        1.0
      ]
    },
    {
      "bufferView": 3,
      "componentType": 5126,
      "count": 146,
      "type": "VEC2",
      "max": [
        0.990949273109436,
        0.98991072177886963
      ],
      "min": [
        0.0058766603469848633,
        0.0038583874702453613
      ]
    },
    {
      "bufferView": 4,
      "componentType": 5121,
      "count": 270,
      "type": "SCALAR",
      "max": [
        145.0
      ],
      "min": [
        0.0
      ]
    }
  ],
  "asset": {
    "version": "2.0"
  },
  "buffers": [
    {
      "uri": "pointStar_mdl_01.bin",
      "byteLength": 7278
    }
  ],
  "bufferViews": [
    {
      "buffer": 0,
      "byteLength": 1752
    },
    {
      "buffer": 0,
      "byteOffset": 1752,
      "byteLength": 1752
    },
    {
      "buffer": 0,
      "byteOffset": 3504,
      "byteLength": 2336
    },
    {
      "buffer": 0,
      "byteOffset": 5840,
      "byteLength": 1168
    },
    {
      "buffer": 0,
      "byteOffset": 7008,
      "byteLength": 270
    }
  ],
  "materials": [
    {
      "pbrMetallicRoughness": {
        "baseColorFactor": [
          0.5,
          0.5,
          0.5,
          1.0
        ],
        "metallicFactor": 0.0
      },
      "name": "lambert1"
    }
  ],
  "meshes": [
    {
      "primitives": [
        {
          "attributes": {
            "POSITION": 0,
            "NORMAL": 1,
            "TANGENT": 2,
            "TEXCOORD_0": 3
          },
          "indices": 4,
          "material": 0
        }
      ],
      "name": "pointStar_mdl_01"
    }
  ],
  "nodes": [
    {
      "mesh": 0,
      "rotation": [
        0.0,
        0.0,
        0.0,
        -1.0
      ],
      "name": "pointStar_mdl_01"
    }
  ],
  "scene": 0,
  "scenes": [
    {
      "nodes": [
        0
      ],
      "name": "pointStar_mdl_01"
    }
  ]
}