{
  "accessors": [
    {
      "bufferView": 0,
      "componentType": 5126,
      "count": 587,
      "type": "VEC3",
      "max": [
        0.2329927384853363,
        0.30620482563972473,
        0.29846927523612976
      ],
      "min": [
        -0.2329927533864975,
        0.0,
        -0.29846933484077454
      ]
    },
    {
      "bufferView": 1,
      "componentType": 5126,
      "count": 587,
      "type": "VEC3",
      "max": [
        0.99998950958251953,
        1.0,
        0.99993705749511719
      ],
      "min": [
        -0.99998950958251953,
        -1.0,
        -0.99993705749511719
      ]
    },
    {
      "bufferView": 2,
      "componentType": 5126,
      "count": 587,
      "type": "VEC4",
      "max": [
        1.0,
        0.99941170215606689,
        1.0,
        1.0
      ],
      "min": [
        -1.0,
        -0.99941229820251465,
        -1.0,
        -1.0
      ]
    },
    {
      "bufferView": 3,
      "componentType": 5126,
      "count": 587,
      "type": "VEC2",
      "max": [
        0.97817468643188477,
        0.99463623762130737
      ],
      "min": [
        0.0096493791788816452,
        0.0045590400695800781
      ]
    },
    {
      "bufferView": 4,
      "componentType": 5123,
      "count": 1764,
      "type": "SCALAR",
      "max": [
        586.0
      ],
      "min": [
        0.0
      ]
    }
  ],
  "asset": {
    "version": "2.0"
  },
  "buffers": [
    {
      "uri": "topHat.bin",
      "byteLength": 31704
    }
  ],
  "bufferViews": [
    {
      "buffer": 0,
      "byteLength": 7044
    },
    {
      "buffer": 0,
      "byteOffset": 7044,
      "byteLength": 7044
    },
    {
      "buffer": 0,
      "byteOffset": 14088,
      "byteLength": 9392
    },
    {
      "buffer": 0,
      "byteOffset": 23480,
      "byteLength": 4696
    },
    {
      "buffer": 0,
      "byteOffset": 28176,
      "byteLength": 3528
    }
  ],
  "images": [
    {
      "uri": "topHat_mdl_01_1001_Normal.png",
      "name": "topHat_mdl_01_1001_Normal"
    },
    {
      "uri": "topHat_mdl_01_1001_BaseMap.png",
      "name": "topHat_mdl_01_1001_BaseMap"
    },
    {
      "uri": "topHat_mdl_01_1001_MaskMap.png",
      "name": "topHat_mdl_01_1001_MaskMap"
    }
  ],
  "materials": [
    {
      "pbrMetallicRoughness": {
        "baseColorTexture": {
          "index": 1
        },
        "metallicFactor": 0.0,
        "roughnessFactor": 0.5,
        "metallicRoughnessTexture": {
          "index": 2
        }
      },
      "normalTexture": {
        "index": 0
      },
      "name": "topHat"
    }
  ],
  "meshes": [
    {
      "primitives": [
        {
          "attributes": {
            "POSITION": 0,
            "NORMAL": 1,
            "TANGENT": 2,
            "TEXCOORD_0": 3
          },
          "indices": 4,
          "material": 0
        }
      ],
      "name": "topHat"
    }
  ],
  "nodes": [
    {
      "mesh": 0,
      "rotation": [
        0.0,
        0.0,
        0.0,
        -1.0
      ],
      "name": "topHat"
    }
  ],
  "samplers": [
    {}
  ],
  "scene": 0,
  "scenes": [
    {
      "nodes": [
        0
      ],
      "name": "topHat"
    }
  ],
  "textures": [
    {
      "sampler": 0,
      "source": 0,
      "name": "topHat_mdl_01_1001_Normal"
    },
    {
      "sampler": 0,
      "source": 1,
      "name": "topHat_mdl_01_1001_BaseMap"
    },
    {
      "sampler": 0,
      "source": 2,
      "name": "topHat_mdl_01_1001_MaskMap"
    }
  ]
}